<svg width="107" height="40" viewBox="0 0 107 40" fill="none" xmlns="http://www.w3.org/2000/svg">
<path d="M14.732 18.084C14.516 17.172 14.072 16.44 13.4 15.888C12.728 15.336 11.912 15.06 10.952 15.06C9.944 15.06 9.116 15.324 8.468 15.852C7.844 16.38 7.448 17.124 7.28 18.084H14.732ZM7.1 21.864C7.1 24.672 8.42 26.076 11.06 26.076C12.476 26.076 13.544 25.5 14.264 24.348H20.564C19.292 28.572 16.112 30.684 11.024 30.684C9.464 30.684 8.036 30.456 6.74 30C5.444 29.52 4.328 28.848 3.392 27.984C2.48 27.12 1.772 26.088 1.268 24.888C0.764 23.688 0.512 22.344 0.512 20.856C0.512 19.32 0.752 17.94 1.232 16.716C1.712 15.468 2.396 14.412 3.284 13.548C4.172 12.684 5.24 12.024 6.488 11.568C7.76 11.088 9.188 10.848 10.772 10.848C12.332 10.848 13.736 11.088 14.984 11.568C16.232 12.024 17.288 12.696 18.152 13.584C19.016 14.472 19.676 15.564 20.132 16.86C20.588 18.132 20.816 19.572 20.816 21.18V21.864H7.1ZM32.2086 24.528H33.7566C35.5326 24.528 36.8046 24.3 37.5726 23.844C38.3406 23.388 38.7246 22.656 38.7246 21.648C38.7246 20.64 38.3406 19.908 37.5726 19.452C36.8046 18.996 35.5326 18.768 33.7566 18.768H32.2086V24.528ZM32.2086 13.512H33.5046C35.7126 13.512 36.8166 12.636 36.8166 10.884C36.8166 9.132 35.7126 8.256 33.5046 8.256H32.2086V13.512ZM25.1526 2.856H35.6646C38.1606 2.856 40.0566 3.456 41.3526 4.656C42.6486 5.856 43.2966 7.584 43.2966 9.84C43.2966 11.208 43.0446 12.348 42.5406 13.26C42.0606 14.148 41.3166 14.904 40.3086 15.528C41.3166 15.72 42.1686 16.02 42.8646 16.428C43.5846 16.812 44.1606 17.292 44.5926 17.868C45.0486 18.444 45.3726 19.092 45.5646 19.812C45.7566 20.532 45.8526 21.3 45.8526 22.116C45.8526 23.388 45.6246 24.516 45.1686 25.5C44.7366 26.484 44.1126 27.312 43.2966 27.984C42.5046 28.656 41.5326 29.16 40.3806 29.496C39.2286 29.832 37.9326 30 36.4926 30H25.1526V2.856ZM55.9824 0.119998V30H49.4664V0.119998H55.9824ZM66.5911 20.676C66.5911 21.3 66.6991 21.876 66.9151 22.404C67.1551 22.908 67.4551 23.352 67.8151 23.736C68.1991 24.12 68.6431 24.42 69.1471 24.636C69.6751 24.852 70.2271 24.96 70.8031 24.96C71.3791 24.96 71.9191 24.852 72.4231 24.636C72.9511 24.42 73.3951 24.12 73.7551 23.736C74.1391 23.352 74.4391 22.908 74.6551 22.404C74.8951 21.876 75.0151 21.312 75.0151 20.712C75.0151 20.136 74.8951 19.596 74.6551 19.092C74.4391 18.564 74.1391 18.108 73.7551 17.724C73.3951 17.34 72.9511 17.04 72.4231 16.824C71.9191 16.608 71.3791 16.5 70.8031 16.5C70.2271 16.5 69.6751 16.608 69.1471 16.824C68.6431 17.04 68.1991 17.34 67.8151 17.724C67.4551 18.108 67.1551 18.552 66.9151 19.056C66.6991 19.56 66.5911 20.1 66.5911 20.676ZM59.7151 20.604C59.7151 19.236 59.9911 17.964 60.5431 16.788C61.0951 15.588 61.8631 14.556 62.8471 13.692C63.8311 12.804 64.9951 12.108 66.3391 11.604C67.7071 11.1 69.1951 10.848 70.8031 10.848C72.3871 10.848 73.8511 11.1 75.1951 11.604C76.5631 12.084 77.7391 12.768 78.7231 13.656C79.7311 14.52 80.5111 15.564 81.0631 16.788C81.6151 17.988 81.8911 19.32 81.8911 20.784C81.8911 22.248 81.6031 23.592 81.0271 24.816C80.4751 26.016 79.7071 27.06 78.7231 27.948C77.7391 28.812 76.5511 29.484 75.1591 29.964C73.7911 30.444 72.3031 30.684 70.6951 30.684C69.1111 30.684 67.6471 30.444 66.3031 29.964C64.9591 29.484 63.7951 28.8 62.8111 27.912C61.8511 27.024 61.0951 25.968 60.5431 24.744C59.9911 23.496 59.7151 22.116 59.7151 20.604ZM91.6902 20.676C91.6902 21.276 91.7982 21.84 92.0142 22.368C92.2302 22.872 92.5182 23.316 92.8782 23.7C93.2622 24.084 93.7062 24.384 94.2102 24.6C94.7382 24.816 95.3022 24.924 95.9022 24.924C96.4782 24.924 97.0182 24.816 97.5222 24.6C98.0502 24.384 98.4942 24.084 98.8542 23.7C99.2382 23.316 99.5382 22.872 99.7542 22.368C99.9942 21.84 100.114 21.288 100.114 20.712C100.114 20.112 99.9942 19.56 99.7542 19.056C99.5382 18.552 99.2382 18.108 98.8542 17.724C98.4702 17.34 98.0142 17.04 97.4862 16.824C96.9822 16.608 96.4542 16.5 95.9022 16.5C95.3262 16.5 94.7862 16.62 94.2822 16.86C93.7782 17.076 93.3342 17.376 92.9502 17.76C92.5662 18.12 92.2542 18.552 92.0142 19.056C91.7982 19.56 91.6902 20.1 91.6902 20.676ZM106.306 11.532V28.74C106.306 29.772 106.246 30.696 106.126 31.512C106.006 32.328 105.838 33.048 105.622 33.672C105.334 34.464 104.878 35.196 104.254 35.868C103.654 36.564 102.922 37.164 102.058 37.668C101.194 38.172 100.21 38.568 99.1062 38.856C98.0262 39.144 96.8502 39.288 95.5782 39.288C94.1382 39.288 92.8182 39.108 91.6182 38.748C90.4182 38.388 89.3622 37.884 88.4502 37.236C87.5622 36.612 86.8302 35.868 86.2542 35.004C85.6782 34.164 85.2942 33.24 85.1022 32.232H92.4462C92.9022 33.456 93.9342 34.068 95.5422 34.068C96.9102 34.068 97.9542 33.684 98.6742 32.916C99.4182 32.148 99.7902 31.08 99.7902 29.712V27.948C99.3102 28.404 98.8422 28.788 98.3862 29.1C97.9542 29.388 97.5102 29.628 97.0542 29.82C96.5982 30.012 96.1182 30.144 95.6142 30.216C95.1102 30.312 94.5582 30.36 93.9582 30.36C92.6382 30.36 91.4262 30.132 90.3222 29.676C89.2182 29.22 88.2582 28.584 87.4422 27.768C86.6502 26.952 86.0262 25.98 85.5702 24.852C85.1382 23.7 84.9222 22.428 84.9222 21.036C84.9222 19.62 85.1622 18.312 85.6422 17.112C86.1222 15.888 86.7702 14.832 87.5862 13.944C88.4262 13.032 89.4102 12.324 90.5382 11.82C91.6902 11.292 92.9382 11.028 94.2822 11.028C96.4662 11.028 98.3022 11.844 99.7902 13.476V11.532H106.306Z" fill="#907CFF"/>
</svg>
