<svg width="15" height="15" viewBox="0 0 15 15" fill="none" xmlns="http://www.w3.org/2000/svg">
<rect x="1.875" y="2.8125" width="11.25" height="6.5625" fill="white"/>
<path fill-rule="evenodd" clip-rule="evenodd" d="M10.489 0.937512C9.5041 0.9375 8.85658 1.05147 8.11602 1.3967C7.89739 1.49861 7.68914 1.61715 7.49206 1.75206C7.30498 1.62625 7.10771 1.51456 6.901 1.41719C6.14706 1.06205 5.46745 0.9375 4.51705 0.9375C1.91109 0.9375 0 3.01276 0 5.69992C0 7.71367 1.15925 9.62641 3.29227 11.4535C4.39693 12.3997 5.80403 13.3339 6.81853 13.8342L7.5 14.1703L8.18147 13.8342C9.19597 13.3339 10.6031 12.3997 11.7077 11.4535C13.8407 9.62641 15 7.71367 15 5.69992C15 3.0395 13.0725 0.947701 10.489 0.937512ZM13.125 5.69992C13.125 7.07236 12.2449 8.52459 10.488 10.0295C9.55528 10.8284 8.36444 11.6289 7.5 12.0777C6.63556 11.6289 5.44472 10.8284 4.51203 10.0295C2.75514 8.52459 1.875 7.07236 1.875 5.69992C1.875 4.01536 2.98271 2.8125 4.51705 2.8125C5.21086 2.8125 5.62382 2.88818 6.10199 3.11342C6.37802 3.24344 6.62022 3.41389 6.8293 3.62631L7.50315 4.31092L8.17116 3.62059C8.38491 3.3997 8.63011 3.22576 8.90823 3.09612C9.37103 2.88038 9.75665 2.8125 10.4853 2.8125C11.9985 2.81848 13.125 4.04101 13.125 5.69992Z" fill="white"/>
<rect x="3.75" y="7.5" width="7.5" height="3.75" fill="white"/>
<rect x="5.625" y="10.3125" width="3.75" height="1.875" fill="white"/>
</svg>
